<?xml version="1.0" standalone="no"?>
<!DOCTYPE svg PUBLIC "-//W3C//DTD SVG 20010904//EN"
 "http://www.w3.org/TR/2001/REC-SVG-20010904/DTD/svg10.dtd">
<svg version="1.0" xmlns="http://www.w3.org/2000/svg"
 width="204.000000pt" height="84.000000pt" viewBox="0 0 204.000000 84.000000"
 preserveAspectRatio="xMidYMid meet">
<metadata>
Created by potrace 1.16, written by Peter Selinger 2001-2019
</metadata>
<g transform="translate(0.000000,84.000000) scale(0.100000,-0.100000)"
fill="#000000" stroke="none">
<path d="M960 822 c-19 -2 -39 -7 -45 -11 -5 -5 -23 -11 -39 -15 -40 -10 -112
-53 -134 -80 -30 -38 -39 -38 -73 -2 -17 20 -41 38 -53 42 -12 4 -23 10 -26
15 -3 4 -28 13 -55 20 -28 6 -58 15 -67 20 -23 12 -125 12 -132 0 -3 -4 -24
-11 -47 -15 -23 -4 -62 -19 -88 -34 -50 -29 -141 -119 -141 -139 0 -7 -5 -13
-10 -13 -6 0 -15 -20 -22 -45 -7 -25 -16 -45 -20 -45 -4 0 -8 -47 -8 -105 0
-58 4 -105 8 -105 4 0 13 -21 20 -46 13 -50 89 -157 125 -176 12 -6 28 -17 35
-25 7 -7 25 -16 40 -20 15 -3 30 -11 34 -17 4 -6 54 -12 121 -14 106 -4 118
-2 173 23 32 15 80 44 107 66 l49 39 30 -23 c17 -12 37 -26 47 -32 9 -5 19
-15 24 -22 4 -6 22 -15 40 -18 17 -4 35 -13 39 -19 9 -14 236 -15 246 -1 4 6
26 17 50 25 23 7 42 17 42 22 0 4 6 8 14 8 8 0 27 15 43 33 16 19 34 37 40 40
6 4 29 -11 51 -33 22 -22 48 -40 56 -40 9 0 16 -4 16 -9 0 -4 21 -14 48 -20
26 -7 55 -17 64 -22 23 -12 135 -12 142 0 3 5 26 12 51 15 25 4 51 13 58 20 7
7 23 17 36 21 27 8 131 113 131 132 0 7 4 13 9 13 5 0 15 20 22 45 7 25 17 45
21 45 11 0 10 204 -1 216 -5 5 -14 27 -21 49 -16 49 -94 153 -126 167 -13 6
-24 14 -24 18 0 3 -17 12 -37 19 -21 8 -41 19 -45 25 -4 6 -53 12 -120 14
-105 3 -117 2 -173 -23 -57 -25 -136 -82 -161 -114 -10 -12 -13 -11 -18 7 -4
12 -13 22 -19 22 -7 0 -18 9 -25 20 -7 11 -19 20 -27 20 -8 0 -15 4 -15 9 0 4
-21 14 -47 21 -27 7 -52 16 -58 20 -14 10 -112 18 -155 12z m748 -56 c148 -40
233 -126 267 -272 13 -57 13 -72 0 -129 -18 -77 -43 -122 -101 -181 -74 -74
-112 -89 -235 -89 -93 0 -111 3 -154 25 -47 24 -135 103 -135 121 0 20 -30 7
-51 -22 -53 -75 -123 -119 -220 -139 -91 -18 -212 9 -266 59 -10 10 -29 24
-41 30 -12 6 -22 18 -22 25 0 7 -9 21 -20 31 -21 19 -21 18 -50 -16 -17 -18
-30 -36 -30 -39 0 -3 -17 -16 -38 -30 -20 -14 -39 -28 -42 -32 -3 -3 -40 -17
-83 -29 l-78 -23 -85 21 c-46 12 -90 27 -96 32 -100 79 -137 132 -165 237 -15
55 -15 70 -4 116 27 109 93 201 186 258 36 22 51 24 151 25 98 0 115 -3 159
-25 47 -24 135 -103 135 -121 0 -20 30 -7 51 22 31 44 61 72 95 89 16 8 31 18
34 21 8 10 107 29 151 29 67 0 131 -21 196 -64 35 -23 63 -45 63 -50 0 -14 31
-46 44 -46 6 1 24 18 41 39 43 54 105 97 166 116 30 10 59 18 64 20 22 7 63 4
113 -9z"/>
<path d="M1442 418 l3 -173 140 0 c121 0 144 3 170 20 63 40 85 78 85 144 0
81 -40 144 -99 157 -14 3 -36 10 -49 15 -13 5 -75 9 -138 9 l-114 0 2 -172z
m238 83 c0 -5 11 -12 24 -15 42 -10 50 -93 11 -131 -22 -22 -32 -25 -105 -25
l-80 0 0 90 0 90 75 0 c41 0 75 -4 75 -9z"/>
<path d="M358 573 c-10 -2 -18 -13 -18 -24 0 -10 -4 -19 -9 -19 -5 0 -27 -34
-48 -75 -51 -101 -67 -129 -86 -159 -29 -44 -23 -56 29 -56 37 0 47 4 51 20 3
11 9 20 14 20 5 0 9 7 9 15 0 12 17 15 98 15 l97 0 15 -33 c13 -29 20 -32 63
-35 45 -3 47 -2 47 22 0 15 -4 26 -9 26 -5 0 -12 11 -15 24 -3 14 -12 31 -19
38 -7 7 -18 24 -25 38 -7 14 -23 43 -37 65 -14 22 -32 56 -41 76 -19 43 -58
57 -116 42z"/>
<path d="M806 572 c-10 -16 -9 -313 1 -323 6 -6 26 -9 44 -7 l34 3 3 87 c3
103 5 103 83 -19 26 -40 51 -42 78 -5 11 15 27 34 34 42 7 8 22 29 32 45 l20
30 5 -90 5 -90 43 -3 42 -3 -2 168 -3 168 -40 -1 c-21 -1 -41 -7 -43 -14 -3
-7 -13 -20 -23 -28 -11 -9 -19 -22 -19 -29 0 -6 -6 -16 -13 -20 -7 -4 -23 -23
-36 -40 -12 -18 -26 -33 -31 -33 -4 0 -32 30 -61 68 -28 37 -61 75 -72 85 -20
17 -72 23 -81 9z"/>
</g>
</svg>
