<?xml version="1.0" standalone="no"?>
<!DOCTYPE svg PUBLIC "-//W3C//DTD SVG 20010904//EN"
 "http://www.w3.org/TR/2001/REC-SVG-20010904/DTD/svg10.dtd">
<svg version="1.0" xmlns="http://www.w3.org/2000/svg"
 width="276.000000pt" height="74.000000pt" viewBox="0 0 276.000000 74.000000"
 preserveAspectRatio="xMidYMid meet">
<metadata>
Created by potrace 1.16, written by Peter Selinger 2001-2019
</metadata>
<g transform="translate(0.000000,74.000000) scale(0.100000,-0.100000)"
fill="#000000" stroke="none">
<path d="M453 690 c-26 -28 -53 -60 -61 -72 -9 -12 -31 -36 -50 -54 -30 -28
-33 -36 -27 -65 4 -18 11 -40 16 -49 4 -8 14 -35 21 -60 17 -59 43 -65 53 -13
4 21 11 43 15 48 5 6 20 46 35 90 14 44 30 87 35 96 5 9 14 35 20 58 6 23 14
49 17 57 12 32 -30 11 -74 -36z"/>
<path d="M1705 562 c-32 -7 -42 -20 -49 -62 -5 -31 -11 -40 -26 -40 -14 0 -20
7 -20 23 0 20 -4 22 -45 19 -33 -3 -46 -9 -50 -23 -5 -15 -16 -19 -51 -19 -29
0 -46 -5 -50 -14 -9 -24 -33 -28 -27 -5 5 18 1 20 -43 17 -45 -3 -49 -5 -54
-32 l-5 -29 -14 26 c-16 30 -60 43 -121 34 -29 -4 -50 -16 -76 -44 -33 -34
-36 -35 -30 -13 37 128 36 140 -13 140 -45 0 -46 -1 -56 -95 -4 -33 -9 -64
-12 -68 -8 -13 -40 36 -53 81 -7 23 -16 42 -20 42 -4 0 -10 9 -13 21 -5 17
-12 20 -49 17 -42 -3 -43 -4 -50 -43 -28 -158 -46 -242 -52 -258 -13 -29 1
-47 36 -47 42 0 55 20 64 101 6 60 23 115 24 80 0 -8 14 -43 30 -78 17 -34 30
-68 30 -73 0 -6 5 -10 10 -10 6 0 10 -4 10 -9 0 -4 -32 -11 -72 -15 -101 -9
-118 -15 -118 -38 0 -17 5 -20 29 -15 16 4 71 9 123 12 51 4 102 11 113 16 53
25 1337 25 1390 0 17 -8 79 -15 235 -24 17 -2 26 4 28 17 2 11 0 16 -6 12 -6
-3 -13 -2 -16 3 -3 4 -28 11 -56 15 l-50 7 7 42 c3 23 12 48 20 55 7 7 13 17
13 21 0 19 51 61 74 61 14 0 30 8 35 18 6 9 11 12 11 5 0 -15 32 -25 54 -17
11 4 16 18 16 45 l0 39 -70 0 c-58 0 -72 -3 -90 -22 l-20 -22 0 22 c0 19 -5
22 -44 22 -26 0 -46 -5 -49 -12 -4 -10 -6 -10 -6 0 -1 8 -24 12 -79 12 -67 0
-83 -3 -111 -24 -44 -32 -78 -84 -86 -129 -7 -36 -21 -55 -31 -44 -3 3 -3 30
1 61 6 49 10 56 30 56 14 0 26 9 33 25 18 39 15 55 -11 55 -18 0 -23 5 -23 22
1 20 -3 22 -41 19 -34 -2 -42 1 -48 18 -6 19 -14 21 -90 21 -76 0 -86 -2 -109
-25 -53 -53 -47 -113 19 -171 69 -60 56 -91 -32 -78 l-44 6 7 69 c3 37 4 79 0
93 -5 22 -12 26 -45 26 -23 0 -46 -7 -56 -16 -9 -9 -18 -14 -21 -11 -5 5 4 58
17 105 5 16 -28 30 -56 24z"/>
<path d="M260 351 c0 -11 -4 -22 -9 -25 -5 -3 -14 -35 -21 -71 -7 -36 -16 -65
-20 -65 -4 0 -13 -27 -19 -60 -7 -33 -16 -62 -21 -65 -15 -9 -12 -25 5 -31 9
-4 38 17 79 59 73 74 101 113 88 121 -5 3 -13 22 -17 43 -10 53 -38 113 -52
113 -7 0 -13 -9 -13 -19z"/>
</g>
</svg>
