<?xml version="1.0" standalone="no"?>
<!DOCTYPE svg PUBLIC "-//W3C//DTD SVG 20010904//EN"
 "http://www.w3.org/TR/2001/REC-SVG-20010904/DTD/svg10.dtd">
<svg version="1.0" xmlns="http://www.w3.org/2000/svg"
 width="174.000000pt" height="70.000000pt" viewBox="0 0 174.000000 70.000000"
 preserveAspectRatio="xMidYMid meet">
<metadata>
Created by potrace 1.16, written by Peter Selinger 2001-2019
</metadata>
<g transform="translate(0.000000,70.000000) scale(0.100000,-0.100000)"
fill="#000000" stroke="none">
<path d="M258 678 c-21 -11 -38 -24 -38 -29 0 -5 -6 -9 -13 -9 -13 0 -97 -84
-97 -96 0 -3 -13 -24 -29 -47 -47 -69 -73 -153 -78 -252 l-5 -90 38 -44 c36
-41 41 -43 81 -38 25 3 57 16 78 32 l36 27 26 -26 c17 -18 37 -26 59 -26 37 0
84 18 84 33 0 5 8 15 17 22 13 10 17 29 18 84 0 54 3 71 14 71 11 0 13 -14 8
-66 -2 -36 -10 -71 -16 -77 -16 -16 -13 -54 5 -61 45 -17 80 -1 103 49 l14 30
7 -27 c18 -63 76 -77 129 -32 l31 26 0 -33 c0 -37 42 -99 68 -99 15 0 17 12
17 95 0 62 4 98 13 107 10 10 12 1 12 -43 0 -83 33 -102 96 -54 l32 25 16 -25
c21 -32 60 -32 92 0 l25 25 23 -25 c18 -19 33 -25 65 -25 51 0 72 10 115 58
l34 36 18 -39 c25 -54 76 -79 139 -70 38 6 45 11 45 31 0 18 -6 23 -32 26 -52
5 -62 35 -53 151 l7 97 94 0 c109 0 184 25 184 60 0 18 -9 20 -124 22 l-124 3
20 44 c11 24 22 59 25 77 l6 34 -49 -7 c-54 -7 -79 -29 -89 -78 -3 -16 -11
-40 -17 -52 -11 -23 -13 -23 -240 -23 -176 0 -228 3 -228 13 0 6 12 35 25 62
38 78 35 84 -42 75 -26 -3 -49 -12 -54 -20 -16 -30 -38 -85 -41 -105 -3 -19
-13 -20 -159 -25 -164 -5 -183 -11 -191 -56 -3 -18 6 -19 155 -22 l158 -3 -6
-22 c-4 -12 -15 -39 -26 -60 -10 -21 -19 -43 -19 -50 0 -13 -39 -67 -40 -54 0
5 5 28 11 52 15 59 6 90 -31 105 -41 17 -77 5 -100 -32 l-19 -32 -11 31 c-15
41 -59 61 -98 44 -18 -9 -28 -9 -30 -2 -4 13 -62 15 -62 2 0 -5 -10 -12 -22
-15 -13 -3 -39 -29 -58 -57 -49 -72 -100 -129 -115 -129 -29 0 -34 86 -9 171
18 64 74 181 92 192 6 4 12 12 12 17 0 15 78 90 104 100 42 16 47 -8 15 -77
-25 -55 -72 -121 -100 -141 -16 -11 -18 -16 -7 -29 31 -38 166 13 184 69 4 13
11 26 17 30 12 8 22 107 13 141 -3 13 -18 36 -32 50 -23 23 -34 27 -83 26 -34
-1 -71 -9 -93 -21z m1081 -348 c-10 -21 -19 -44 -19 -50 0 -5 -4 -10 -9 -10
-5 0 -11 -10 -15 -22 -6 -25 -69 -98 -84 -98 -7 0 -32 42 -32 55 0 3 12 2 28
-1 40 -8 82 27 82 70 0 53 -50 84 -105 66 -22 -7 -43 -28 -71 -70 -21 -32 -40
-57 -42 -56 -1 2 2 23 7 46 5 23 7 48 5 55 -3 8 -35 16 -80 20 -87 8 -102 0
-136 -73 -30 -63 -33 -45 -6 37 l23 71 236 0 237 0 -19 -40z"/>
</g>
</svg>
