<?xml version="1.0" standalone="no"?>
<!DOCTYPE svg PUBLIC "-//W3C//DTD SVG 20010904//EN"
 "http://www.w3.org/TR/2001/REC-SVG-20010904/DTD/svg10.dtd">
<svg version="1.0" xmlns="http://www.w3.org/2000/svg"
 width="246.000000pt" height="40.000000pt" viewBox="0 0 246.000000 40.000000"
 preserveAspectRatio="xMidYMid meet">
<metadata>
Created by potrace 1.16, written by Peter Selinger 2001-2019
</metadata>
<g transform="translate(0.000000,40.000000) scale(0.100000,-0.100000)"
fill="#000000" stroke="none">
<path d="M0 205 l0 -195 155 0 154 0 4 118 3 117 2 -117 2 -118 155 0 155 0 0
195 0 195 -315 0 -315 0 0 -195z m550 125 c0 -6 -85 -10 -235 -10 l-235 0 0
-120 0 -121 73 3 72 3 6 40 6 40 2 -47 1 -48 -90 0 -90 0 0 135 0 135 245 0
c157 0 245 -4 245 -10z"/>
<path d="M832 363 l3 -38 58 -3 57 -3 0 -154 0 -155 40 0 40 0 0 155 0 154 58
3 57 3 3 38 3 37 -161 0 -161 0 3 -37z"/>
<path d="M1300 387 c-34 -15 -83 -66 -98 -100 -16 -37 -15 -130 2 -170 18 -44
78 -95 122 -103 20 -4 63 -4 96 -1 88 8 136 50 167 149 10 30 9 48 -5 95 -28
100 -88 143 -196 142 -34 0 -74 -6 -88 -12z m155 -77 c14 -5 28 -18 32 -27 4
-10 11 -21 16 -24 5 -3 9 -27 9 -52 0 -50 -31 -107 -58 -107 -8 0 -14 -4 -14
-10 0 -5 -22 -10 -50 -10 -27 0 -50 4 -50 8 0 5 -11 15 -25 22 -55 30 -58 139
-4 184 33 28 94 35 144 16z"/>
<path d="M1805 393 c-29 -8 -85 -53 -85 -69 0 -8 -4 -14 -10 -14 -17 0 -32
-83 -26 -139 8 -63 51 -126 103 -147 39 -17 138 -18 199 -3 l44 11 0 89 c0
101 -2 103 -96 97 -49 -3 -49 -3 -52 -40 -3 -38 -3 -38 33 -38 34 0 36 -2 33
-27 -3 -25 -7 -28 -47 -31 -62 -5 -107 22 -132 77 l-19 44 21 48 c27 60 58 74
137 66 31 -4 70 -10 85 -13 28 -6 28 -6 25 32 -3 35 -7 40 -38 51 -35 12 -137
15 -175 6z"/>
<path d="M2250 380 c0 -11 -4 -20 -9 -20 -5 0 -12 -12 -16 -27 -3 -15 -17 -52
-31 -81 -13 -29 -24 -57 -24 -61 0 -5 -7 -22 -15 -38 -23 -45 -55 -121 -55
-133 0 -7 16 -10 42 -8 38 3 43 6 51 37 13 51 28 61 96 61 l61 0 22 -50 c20
-46 25 -50 55 -50 31 0 33 2 33 35 0 19 -4 35 -9 35 -5 0 -12 12 -16 28 -3 15
-14 43 -22 62 -9 19 -24 53 -33 75 -66 151 -69 155 -100 155 -23 0 -30 -4 -30
-20z"/>
</g>
</svg>
