<?xml version="1.0" standalone="no"?>
<!DOCTYPE svg PUBLIC "-//W3C//DTD SVG 20010904//EN"
 "http://www.w3.org/TR/2001/REC-SVG-20010904/DTD/svg10.dtd">
<svg version="1.0" xmlns="http://www.w3.org/2000/svg"
 width="172.000000pt" height="34.000000pt" viewBox="0 0 172.000000 34.000000"
 preserveAspectRatio="xMidYMid meet">
<metadata>
Created by potrace 1.16, written by Peter Selinger 2001-2019
</metadata>
<g transform="translate(0.000000,34.000000) scale(0.100000,-0.100000)"
fill="#000000" stroke="none">
<path d="M17 326 c-20 -16 -25 -96 -5 -96 9 0 9 -3 0 -12 -15 -15 -16 -80 -1
-95 8 -8 8 -13 0 -17 -18 -11 -13 -77 7 -92 55 -42 126 23 88 81 -11 16 -12
26 -5 30 12 8 9 12 45 -50 40 -70 47 -75 98 -75 45 0 46 1 46 30 0 18 -6 33
-15 36 -8 4 -15 11 -15 17 0 6 -12 28 -26 48 l-26 38 21 30 c12 17 30 44 41
61 11 16 20 38 20 50 0 17 -6 20 -50 20 -49 0 -50 -1 -85 -52 -19 -29 -35 -59
-35 -67 0 -11 -3 -11 -15 -1 -14 12 -14 15 0 30 22 24 19 47 -10 75 -27 28
-51 31 -78 11z"/>
<path d="M1511 321 c-19 -10 -38 -27 -42 -37 -9 -23 -11 -190 -3 -221 15 -54
136 -82 221 -51 l34 12 -3 81 -3 80 -42 3 -43 3 0 -46 c0 -46 0 -46 -32 -43
l-33 3 0 65 0 65 66 -3 c63 -3 67 -2 73 22 3 13 9 31 12 39 16 43 -138 64
-205 28z"/>
<path d="M337 323 c-4 -3 -7 -75 -7 -159 0 -180 -12 -167 140 -162 l95 3 0 45
0 45 -62 3 c-79 4 -82 20 -5 24 l57 3 0 45 0 45 -57 3 c-77 4 -74 20 5 24 l62
3 3 43 3 42 -114 0 c-62 0 -117 -3 -120 -7z"/>
<path d="M627 324 c-4 -4 -7 -63 -7 -131 0 -112 2 -125 22 -148 12 -14 28 -25
35 -25 7 0 13 -4 13 -10 0 -15 103 -12 143 5 60 25 67 43 67 188 l0 128 -52
-3 -53 -3 -5 -110 c-5 -109 -5 -110 -30 -110 -25 0 -25 1 -30 110 l-5 110 -45
3 c-25 2 -49 0 -53 -4z"/>
<path d="M961 312 c-14 -26 -15 -267 -1 -293 8 -14 21 -19 49 -19 46 0 65 19
59 60 -7 47 23 38 52 -15 25 -46 25 -46 75 -43 60 4 67 18 30 72 -23 34 -24
39 -10 59 9 13 15 44 15 79 0 46 -5 62 -24 85 -23 26 -29 28 -129 31 -98 4
-106 3 -116 -16z"/>
<path d="M1300 165 l0 -165 34 0 c68 0 66 -4 66 171 l0 159 -50 0 -50 0 0
-165z"/>
</g>
</svg>
